<svg width="108" height="180" viewBox="0 0 108 180" fill="none" xmlns="http://www.w3.org/2000/svg">
<g clip-path="url(#clip0_551_2)">
<path fill-rule="evenodd" clip-rule="evenodd" d="M0 -6.42859H108V116.357H0V-6.42859Z" fill="#4AF6CD"/>
<path d="M38.7129 93.4457C38.7129 91.4143 39.0086 89.6271 39.6 88.0843C40.1914 86.5157 41.0786 85.1143 42.2614 83.88L46.0414 87.0814C44.5757 88.9328 43.8429 90.8743 43.8429 92.9057C43.8429 93.96 44.0486 94.77 44.46 95.3357C44.8457 95.8757 45.3986 96.1457 46.1186 96.1457C46.6329 96.1457 47.0571 96.0043 47.3914 95.7214C47.7257 95.4385 48.0471 94.9628 48.3557 94.2943C48.6643 93.6257 49.05 92.5714 49.5129 91.1314C50.3871 88.38 51.4929 86.3743 52.83 85.1143C54.1414 83.8285 55.9671 83.1857 58.3071 83.1857C60.0043 83.1857 61.5086 83.6228 62.82 84.4971C64.1057 85.3714 65.1086 86.6443 65.8286 88.3157C66.5486 89.9614 66.9086 91.9028 66.9086 94.14C66.9086 98.4085 65.61 101.893 63.0129 104.593L59.1171 101.083C60.8657 98.9486 61.74 96.7243 61.74 94.41C61.74 93.2014 61.4829 92.2628 60.9686 91.5943C60.4286 90.9257 59.7214 90.5914 58.8471 90.5914C58.23 90.5914 57.7286 90.72 57.3429 90.9771C56.9314 91.2343 56.5714 91.6971 56.2629 92.3657C55.9286 93.0085 55.5686 93.96 55.1829 95.22C54.2314 98.2543 53.0871 100.389 51.75 101.623C50.4129 102.857 48.7286 103.474 46.6971 103.474C45.1029 103.474 43.7014 103.05 42.4929 102.201C41.2843 101.327 40.3586 100.131 39.7157 98.6143C39.0471 97.0714 38.7129 95.3485 38.7129 93.4457ZM57.2271 59.1141C59.0786 59.1141 60.7371 59.5255 62.2029 60.3484C63.6686 61.1455 64.8257 62.3541 65.6743 63.9741C66.4971 65.5939 66.9086 67.5739 66.9086 69.9139C66.9086 73.4625 66.0471 76.1496 64.3243 77.9753C62.5757 79.801 60.21 80.7139 57.2271 80.7139H39.4071V73.5782H56.9957C58.6157 73.5782 59.8114 73.2953 60.5829 72.7296C61.3286 72.1382 61.7014 71.1996 61.7014 69.9139C61.7014 68.6282 61.3157 67.7025 60.5443 67.1368C59.7729 66.571 58.59 66.2882 56.9957 66.2882H39.4071V59.1141H57.2271ZM56.34 46.2521V48.2192H66.2143V55.3549H39.4071V46.0592C39.4071 42.2792 40.0886 39.4635 41.4514 37.6121C42.8143 35.7349 44.91 34.7963 47.7386 34.7963C49.4357 34.7963 50.85 35.1949 51.9814 35.9921C53.1129 36.7635 54.1286 38.0106 55.0286 39.7335L66.2143 33.0606V41.0063L56.34 46.2521ZM51.48 48.2192V45.8278C51.48 43.3592 50.2329 42.1249 47.7386 42.1249C46.5814 42.1249 45.7329 42.4721 45.1929 43.1663C44.6529 43.8349 44.3829 44.8506 44.3829 46.2135V48.2192H51.48ZM66.2143 31.4361H39.4071V14.9661L44.46 15.6989V24.3003H50.9014V16.7404H55.9543V24.3003H66.2143V31.4361Z" fill="white"/>
<path d="M38.7129 165.806C38.7129 162.231 39.8443 159.159 42.1071 156.587L45.7714 160.097C45.0771 161.074 44.5757 161.961 44.2671 162.759C43.9329 163.53 43.7657 164.417 43.7657 165.42C43.7657 167.349 44.5114 168.866 46.0029 169.971C47.4943 171.051 49.77 171.591 52.83 171.591C55.0671 171.591 56.8414 171.411 58.1529 171.051C59.4386 170.691 60.3643 170.151 60.93 169.431C61.4957 168.686 61.7786 167.734 61.7786 166.577C61.7786 165.42 61.5343 164.366 61.0457 163.414H55.53V166.461L50.6314 167.156V156.51H63.9771C64.9029 157.899 65.6229 159.467 66.1371 161.216C66.6514 162.964 66.9086 164.687 66.9086 166.384C66.9086 174.767 62.2029 178.959 52.7914 178.959C49.86 178.959 47.34 178.393 45.2314 177.261C43.0971 176.104 41.4771 174.536 40.3714 172.556C39.2657 170.576 38.7129 168.326 38.7129 165.806ZM38.7129 141.644C38.7129 137.761 39.9471 134.74 42.4157 132.58C44.8843 130.42 48.3429 129.34 52.7914 129.34C55.6971 129.34 58.2171 129.828 60.3514 130.805C62.46 131.757 64.08 133.158 65.2114 135.01C66.3429 136.861 66.9086 139.072 66.9086 141.644C66.9086 145.527 65.6743 148.548 63.2057 150.708C60.7371 152.842 57.2657 153.91 52.7914 153.91C49.8857 153.91 47.3786 153.434 45.27 152.482C43.1614 151.505 41.5414 150.104 40.41 148.278C39.2786 146.427 38.7129 144.215 38.7129 141.644ZM43.8429 141.644C43.8429 143.315 44.5371 144.55 45.9257 145.347C47.3143 146.118 49.6029 146.504 52.7914 146.504C55.98 146.504 58.2814 146.105 59.6957 145.308C61.0843 144.511 61.7786 143.29 61.7786 141.644C61.7786 139.947 61.0843 138.712 59.6957 137.941C58.3071 137.17 56.0057 136.784 52.7914 136.784C49.6029 136.784 47.3143 137.17 45.9257 137.941C44.5371 138.712 43.8429 139.947 43.8429 141.644Z" fill="white"/>
<path d="M53.3571 109.929V122.786H54V109.929H53.3571Z" fill="white"/>
</g>
<defs>
<clipPath id="clip0_551_2">
<rect width="108" height="180" fill="white"/>
</clipPath>
</defs>
</svg>
